<mxfile host="Electron" agent="Mozilla/5.0 (Windows NT 10.0; Win64; x64) AppleWebKit/537.36 (KHTML, like Gecko) draw.io/26.2.2 Chrome/134.0.6998.178 Electron/35.1.2 Safari/537.36" version="26.2.2">
  <diagram name="Page-1" id="9Mc0S2ib7fyd9acJga6t">
    <mxGraphModel dx="985" dy="586" grid="0" gridSize="10" guides="1" tooltips="1" connect="1" arrows="1" fold="1" page="1" pageScale="1" pageWidth="1100" pageHeight="850" math="0" shadow="0">
      <root>
        <mxCell id="0" />
        <mxCell id="1" parent="0" />
        <mxCell id="D5lpfLi3ph63Vn9O6m8F-9" value="" style="rounded=1;whiteSpace=wrap;html=1;fillColor=#f5f5f5;strokeColor=#666666;shadow=0;fillStyle=hatch;fontColor=#333333;" parent="1" vertex="1">
          <mxGeometry x="510" y="250" width="200" height="350" as="geometry" />
        </mxCell>
        <mxCell id="K_4SThUAGQxyaNUpAKKb-12" value="" style="rounded=1;whiteSpace=wrap;html=1;fillColor=#FFCE9F;strokeColor=#d79b00;shadow=0;gradientColor=none;fillStyle=hatch;" parent="1" vertex="1">
          <mxGeometry x="280" y="250" width="200" height="350" as="geometry" />
        </mxCell>
        <mxCell id="K_4SThUAGQxyaNUpAKKb-1" value="" style="rounded=0;whiteSpace=wrap;html=1;dashed=1;" parent="1" vertex="1">
          <mxGeometry x="120" y="220" width="120" height="380" as="geometry" />
        </mxCell>
        <mxCell id="K_4SThUAGQxyaNUpAKKb-3" value="&lt;font style=&quot;font-size: 15px;&quot;&gt;Sources&lt;/font&gt;" style="text;html=1;align=center;verticalAlign=middle;whiteSpace=wrap;rounded=0;fillColor=default;" parent="1" vertex="1">
          <mxGeometry x="130" y="200" width="100" height="30" as="geometry" />
        </mxCell>
        <mxCell id="K_4SThUAGQxyaNUpAKKb-19" style="edgeStyle=orthogonalEdgeStyle;rounded=0;orthogonalLoop=1;jettySize=auto;html=1;entryX=0;entryY=0.5;entryDx=0;entryDy=0;" parent="1" source="K_4SThUAGQxyaNUpAKKb-6" target="K_4SThUAGQxyaNUpAKKb-16" edge="1">
          <mxGeometry relative="1" as="geometry" />
        </mxCell>
        <mxCell id="K_4SThUAGQxyaNUpAKKb-20" style="edgeStyle=orthogonalEdgeStyle;rounded=0;orthogonalLoop=1;jettySize=auto;html=1;entryX=0;entryY=0.5;entryDx=0;entryDy=0;" parent="1" source="K_4SThUAGQxyaNUpAKKb-6" target="K_4SThUAGQxyaNUpAKKb-17" edge="1">
          <mxGeometry relative="1" as="geometry" />
        </mxCell>
        <mxCell id="K_4SThUAGQxyaNUpAKKb-21" style="edgeStyle=orthogonalEdgeStyle;rounded=0;orthogonalLoop=1;jettySize=auto;html=1;entryX=0;entryY=0.5;entryDx=0;entryDy=0;" parent="1" source="K_4SThUAGQxyaNUpAKKb-6" target="K_4SThUAGQxyaNUpAKKb-18" edge="1">
          <mxGeometry relative="1" as="geometry" />
        </mxCell>
        <mxCell id="K_4SThUAGQxyaNUpAKKb-6" value="" style="image;aspect=fixed;html=1;points=[];align=center;fontSize=12;image=img/lib/azure2/general/Folder_Blank.svg;" parent="1" vertex="1">
          <mxGeometry x="145" y="310" width="61.62" height="50" as="geometry" />
        </mxCell>
        <mxCell id="K_4SThUAGQxyaNUpAKKb-7" value="" style="verticalLabelPosition=bottom;html=1;verticalAlign=top;align=center;strokeColor=none;fillColor=#00BEF2;shape=mxgraph.azure.cloud_services_configuration_file;pointerEvents=1;" parent="1" vertex="1">
          <mxGeometry x="185" y="344" width="30" height="26" as="geometry" />
        </mxCell>
        <mxCell id="K_4SThUAGQxyaNUpAKKb-25" style="edgeStyle=orthogonalEdgeStyle;rounded=0;orthogonalLoop=1;jettySize=auto;html=1;entryX=0;entryY=0.5;entryDx=0;entryDy=0;" parent="1" source="K_4SThUAGQxyaNUpAKKb-8" target="K_4SThUAGQxyaNUpAKKb-22" edge="1">
          <mxGeometry relative="1" as="geometry" />
        </mxCell>
        <mxCell id="K_4SThUAGQxyaNUpAKKb-26" style="edgeStyle=orthogonalEdgeStyle;rounded=0;orthogonalLoop=1;jettySize=auto;html=1;entryX=0;entryY=0.5;entryDx=0;entryDy=0;" parent="1" source="K_4SThUAGQxyaNUpAKKb-8" target="K_4SThUAGQxyaNUpAKKb-23" edge="1">
          <mxGeometry relative="1" as="geometry" />
        </mxCell>
        <mxCell id="K_4SThUAGQxyaNUpAKKb-27" style="edgeStyle=orthogonalEdgeStyle;rounded=0;orthogonalLoop=1;jettySize=auto;html=1;entryX=0;entryY=0.5;entryDx=0;entryDy=0;" parent="1" source="K_4SThUAGQxyaNUpAKKb-8" target="K_4SThUAGQxyaNUpAKKb-24" edge="1">
          <mxGeometry relative="1" as="geometry" />
        </mxCell>
        <mxCell id="K_4SThUAGQxyaNUpAKKb-8" value="" style="image;aspect=fixed;html=1;points=[];align=center;fontSize=12;image=img/lib/azure2/general/Folder_Blank.svg;" parent="1" vertex="1">
          <mxGeometry x="145" y="480" width="61.62" height="50" as="geometry" />
        </mxCell>
        <mxCell id="K_4SThUAGQxyaNUpAKKb-9" value="" style="verticalLabelPosition=bottom;html=1;verticalAlign=top;align=center;strokeColor=none;fillColor=#00BEF2;shape=mxgraph.azure.cloud_services_configuration_file;pointerEvents=1;" parent="1" vertex="1">
          <mxGeometry x="185" y="510" width="30" height="30" as="geometry" />
        </mxCell>
        <mxCell id="K_4SThUAGQxyaNUpAKKb-10" value="crm" style="text;html=1;align=center;verticalAlign=middle;whiteSpace=wrap;rounded=0;" parent="1" vertex="1">
          <mxGeometry x="145" y="370" width="60" height="30" as="geometry" />
        </mxCell>
        <mxCell id="K_4SThUAGQxyaNUpAKKb-11" value="erp" style="text;html=1;align=center;verticalAlign=middle;whiteSpace=wrap;rounded=0;" parent="1" vertex="1">
          <mxGeometry x="145" y="540" width="60" height="30" as="geometry" />
        </mxCell>
        <mxCell id="K_4SThUAGQxyaNUpAKKb-14" value="&lt;font style=&quot;font-size: 14px;&quot;&gt;Bronze Layer&lt;/font&gt;" style="rounded=1;whiteSpace=wrap;html=1;fillColor=#ffe6cc;strokeColor=#d79b00;" parent="1" vertex="1">
          <mxGeometry x="280" y="200" width="200" height="40" as="geometry" />
        </mxCell>
        <mxCell id="D5lpfLi3ph63Vn9O6m8F-18" style="edgeStyle=orthogonalEdgeStyle;rounded=0;orthogonalLoop=1;jettySize=auto;html=1;entryX=0;entryY=0.5;entryDx=0;entryDy=0;" parent="1" source="K_4SThUAGQxyaNUpAKKb-16" target="D5lpfLi3ph63Vn9O6m8F-11" edge="1">
          <mxGeometry relative="1" as="geometry" />
        </mxCell>
        <mxCell id="K_4SThUAGQxyaNUpAKKb-16" value="&lt;font&gt;crm_sales_details&lt;/font&gt;" style="rounded=1;whiteSpace=wrap;html=1;fillColor=#ffe6cc;strokeColor=#d79b00;" parent="1" vertex="1">
          <mxGeometry x="305" y="300" width="150" height="30" as="geometry" />
        </mxCell>
        <mxCell id="D5lpfLi3ph63Vn9O6m8F-19" style="edgeStyle=orthogonalEdgeStyle;rounded=0;orthogonalLoop=1;jettySize=auto;html=1;entryX=0;entryY=0.5;entryDx=0;entryDy=0;" parent="1" source="K_4SThUAGQxyaNUpAKKb-17" target="D5lpfLi3ph63Vn9O6m8F-12" edge="1">
          <mxGeometry relative="1" as="geometry" />
        </mxCell>
        <mxCell id="K_4SThUAGQxyaNUpAKKb-17" value="&lt;font&gt;crm_cust_info&lt;/font&gt;" style="rounded=1;whiteSpace=wrap;html=1;fillColor=#ffe6cc;strokeColor=#d79b00;" parent="1" vertex="1">
          <mxGeometry x="305" y="340" width="150" height="30" as="geometry" />
        </mxCell>
        <mxCell id="D5lpfLi3ph63Vn9O6m8F-20" style="edgeStyle=orthogonalEdgeStyle;rounded=0;orthogonalLoop=1;jettySize=auto;html=1;entryX=0;entryY=0.5;entryDx=0;entryDy=0;" parent="1" source="K_4SThUAGQxyaNUpAKKb-18" target="D5lpfLi3ph63Vn9O6m8F-13" edge="1">
          <mxGeometry relative="1" as="geometry" />
        </mxCell>
        <mxCell id="K_4SThUAGQxyaNUpAKKb-18" value="&lt;font&gt;crm_prd_info&lt;/font&gt;" style="rounded=1;whiteSpace=wrap;html=1;fillColor=#ffe6cc;strokeColor=#d79b00;" parent="1" vertex="1">
          <mxGeometry x="305" y="380" width="150" height="30" as="geometry" />
        </mxCell>
        <mxCell id="D5lpfLi3ph63Vn9O6m8F-21" style="edgeStyle=orthogonalEdgeStyle;rounded=0;orthogonalLoop=1;jettySize=auto;html=1;entryX=0;entryY=0.5;entryDx=0;entryDy=0;" parent="1" source="K_4SThUAGQxyaNUpAKKb-22" target="D5lpfLi3ph63Vn9O6m8F-14" edge="1">
          <mxGeometry relative="1" as="geometry" />
        </mxCell>
        <mxCell id="K_4SThUAGQxyaNUpAKKb-22" value="&lt;font&gt;erp_px_cat_g1v2&lt;/font&gt;" style="rounded=1;whiteSpace=wrap;html=1;fillColor=#ffe6cc;strokeColor=#d79b00;" parent="1" vertex="1">
          <mxGeometry x="305" y="470" width="150" height="30" as="geometry" />
        </mxCell>
        <mxCell id="D5lpfLi3ph63Vn9O6m8F-23" style="edgeStyle=orthogonalEdgeStyle;rounded=0;orthogonalLoop=1;jettySize=auto;html=1;entryX=0;entryY=0.5;entryDx=0;entryDy=0;" parent="1" source="K_4SThUAGQxyaNUpAKKb-23" target="D5lpfLi3ph63Vn9O6m8F-15" edge="1">
          <mxGeometry relative="1" as="geometry" />
        </mxCell>
        <mxCell id="K_4SThUAGQxyaNUpAKKb-23" value="erp_cust_az12" style="rounded=1;whiteSpace=wrap;html=1;fillColor=#ffe6cc;strokeColor=#d79b00;" parent="1" vertex="1">
          <mxGeometry x="305" y="510" width="150" height="30" as="geometry" />
        </mxCell>
        <mxCell id="D5lpfLi3ph63Vn9O6m8F-24" style="edgeStyle=orthogonalEdgeStyle;rounded=0;orthogonalLoop=1;jettySize=auto;html=1;entryX=0;entryY=0.5;entryDx=0;entryDy=0;" parent="1" source="K_4SThUAGQxyaNUpAKKb-24" target="D5lpfLi3ph63Vn9O6m8F-16" edge="1">
          <mxGeometry relative="1" as="geometry" />
        </mxCell>
        <mxCell id="K_4SThUAGQxyaNUpAKKb-24" value="&lt;font&gt;erp_loc_a101&lt;/font&gt;" style="rounded=1;whiteSpace=wrap;html=1;fillColor=#ffe6cc;strokeColor=#d79b00;" parent="1" vertex="1">
          <mxGeometry x="305" y="550" width="150" height="30" as="geometry" />
        </mxCell>
        <mxCell id="D5lpfLi3ph63Vn9O6m8F-10" value="&lt;font style=&quot;font-size: 14px;&quot;&gt;Silver Layer&lt;/font&gt;" style="rounded=1;whiteSpace=wrap;html=1;fillColor=#f5f5f5;strokeColor=#666666;fontColor=#333333;" parent="1" vertex="1">
          <mxGeometry x="510" y="200" width="200" height="40" as="geometry" />
        </mxCell>
        <mxCell id="D5lpfLi3ph63Vn9O6m8F-11" value="&lt;font&gt;crm_sales_details&lt;/font&gt;" style="rounded=1;whiteSpace=wrap;html=1;fillColor=#f5f5f5;strokeColor=#666666;fontColor=#333333;" parent="1" vertex="1">
          <mxGeometry x="535" y="300" width="150" height="30" as="geometry" />
        </mxCell>
        <mxCell id="D5lpfLi3ph63Vn9O6m8F-12" value="&lt;font&gt;crm_cust_info&lt;/font&gt;" style="rounded=1;whiteSpace=wrap;html=1;fillColor=#f5f5f5;strokeColor=#666666;fontColor=#333333;" parent="1" vertex="1">
          <mxGeometry x="535" y="340" width="150" height="30" as="geometry" />
        </mxCell>
        <mxCell id="D5lpfLi3ph63Vn9O6m8F-13" value="&lt;font&gt;crm_prd_info&lt;/font&gt;" style="rounded=1;whiteSpace=wrap;html=1;fillColor=#f5f5f5;strokeColor=#666666;fontColor=#333333;" parent="1" vertex="1">
          <mxGeometry x="535" y="380" width="150" height="30" as="geometry" />
        </mxCell>
        <mxCell id="D5lpfLi3ph63Vn9O6m8F-14" value="&lt;font&gt;erp_px_cat_g1v2&lt;/font&gt;" style="rounded=1;whiteSpace=wrap;html=1;fillColor=#f5f5f5;strokeColor=#666666;fontColor=#333333;" parent="1" vertex="1">
          <mxGeometry x="535" y="470" width="150" height="30" as="geometry" />
        </mxCell>
        <mxCell id="D5lpfLi3ph63Vn9O6m8F-15" value="erp_cust_az12" style="rounded=1;whiteSpace=wrap;html=1;fillColor=#f5f5f5;strokeColor=#666666;fontColor=#333333;" parent="1" vertex="1">
          <mxGeometry x="535" y="510" width="150" height="30" as="geometry" />
        </mxCell>
        <mxCell id="D5lpfLi3ph63Vn9O6m8F-16" value="&lt;font&gt;erp_loc_a101&lt;/font&gt;" style="rounded=1;whiteSpace=wrap;html=1;fillColor=#f5f5f5;strokeColor=#666666;fontColor=#333333;" parent="1" vertex="1">
          <mxGeometry x="535" y="550" width="150" height="30" as="geometry" />
        </mxCell>
        <mxCell id="JdyK81aP22bagLdb8Qu5-1" value="" style="rounded=1;whiteSpace=wrap;html=1;fillColor=#fff2cc;strokeColor=#d6b656;shadow=0;fillStyle=hatch;" vertex="1" parent="1">
          <mxGeometry x="750" y="250" width="200" height="350" as="geometry" />
        </mxCell>
        <mxCell id="JdyK81aP22bagLdb8Qu5-2" value="&lt;font style=&quot;font-size: 14px;&quot;&gt;Gold Layer&lt;/font&gt;" style="rounded=1;whiteSpace=wrap;html=1;fillColor=#fff2cc;strokeColor=#d6b656;" vertex="1" parent="1">
          <mxGeometry x="750" y="200" width="200" height="40" as="geometry" />
        </mxCell>
        <mxCell id="JdyK81aP22bagLdb8Qu5-9" value="dim_customer" style="rounded=1;whiteSpace=wrap;html=1;fillColor=#fff2cc;strokeColor=#d6b656;" vertex="1" parent="1">
          <mxGeometry x="775" y="410" width="150" height="30" as="geometry" />
        </mxCell>
        <mxCell id="JdyK81aP22bagLdb8Qu5-10" value="&lt;font&gt;dim_products&lt;/font&gt;" style="rounded=1;whiteSpace=wrap;html=1;fillColor=#fff2cc;strokeColor=#d6b656;" vertex="1" parent="1">
          <mxGeometry x="775" y="470" width="150" height="30" as="geometry" />
        </mxCell>
        <mxCell id="JdyK81aP22bagLdb8Qu5-11" value="&lt;font&gt;fact_sales&lt;/font&gt;" style="rounded=1;whiteSpace=wrap;html=1;fillColor=#fff2cc;strokeColor=#d6b656;" vertex="1" parent="1">
          <mxGeometry x="770" y="300" width="150" height="30" as="geometry" />
        </mxCell>
        <mxCell id="JdyK81aP22bagLdb8Qu5-16" value="" style="endArrow=classic;html=1;rounded=0;exitX=1;exitY=0.5;exitDx=0;exitDy=0;entryX=0;entryY=0.5;entryDx=0;entryDy=0;jumpStyle=gap;" edge="1" parent="1" source="D5lpfLi3ph63Vn9O6m8F-12" target="JdyK81aP22bagLdb8Qu5-9">
          <mxGeometry width="50" height="50" relative="1" as="geometry">
            <mxPoint x="720" y="430" as="sourcePoint" />
            <mxPoint x="770" y="380" as="targetPoint" />
          </mxGeometry>
        </mxCell>
        <mxCell id="JdyK81aP22bagLdb8Qu5-17" value="" style="endArrow=classic;html=1;rounded=0;exitX=1;exitY=0.5;exitDx=0;exitDy=0;entryX=0;entryY=0.5;entryDx=0;entryDy=0;" edge="1" parent="1" source="D5lpfLi3ph63Vn9O6m8F-11" target="JdyK81aP22bagLdb8Qu5-11">
          <mxGeometry width="50" height="50" relative="1" as="geometry">
            <mxPoint x="695" y="365" as="sourcePoint" />
            <mxPoint x="785" y="395" as="targetPoint" />
          </mxGeometry>
        </mxCell>
        <mxCell id="JdyK81aP22bagLdb8Qu5-18" value="" style="endArrow=classic;html=1;rounded=0;exitX=1;exitY=0.5;exitDx=0;exitDy=0;entryX=0;entryY=0.5;entryDx=0;entryDy=0;jumpStyle=gap;" edge="1" parent="1" source="D5lpfLi3ph63Vn9O6m8F-13" target="JdyK81aP22bagLdb8Qu5-10">
          <mxGeometry width="50" height="50" relative="1" as="geometry">
            <mxPoint x="695" y="325" as="sourcePoint" />
            <mxPoint x="785" y="475" as="targetPoint" />
          </mxGeometry>
        </mxCell>
        <mxCell id="JdyK81aP22bagLdb8Qu5-19" value="" style="endArrow=classic;html=1;rounded=0;exitX=1;exitY=0.5;exitDx=0;exitDy=0;entryX=0;entryY=0.5;entryDx=0;entryDy=0;jumpStyle=gap;" edge="1" parent="1" source="D5lpfLi3ph63Vn9O6m8F-14" target="JdyK81aP22bagLdb8Qu5-10">
          <mxGeometry width="50" height="50" relative="1" as="geometry">
            <mxPoint x="695" y="405" as="sourcePoint" />
            <mxPoint x="785" y="435" as="targetPoint" />
          </mxGeometry>
        </mxCell>
        <mxCell id="JdyK81aP22bagLdb8Qu5-20" value="" style="endArrow=classic;html=1;rounded=0;exitX=1;exitY=0.5;exitDx=0;exitDy=0;entryX=0;entryY=0.5;entryDx=0;entryDy=0;jumpStyle=gap;" edge="1" parent="1" source="D5lpfLi3ph63Vn9O6m8F-15" target="JdyK81aP22bagLdb8Qu5-9">
          <mxGeometry width="50" height="50" relative="1" as="geometry">
            <mxPoint x="695" y="495" as="sourcePoint" />
            <mxPoint x="785" y="435" as="targetPoint" />
          </mxGeometry>
        </mxCell>
        <mxCell id="JdyK81aP22bagLdb8Qu5-21" value="" style="endArrow=classic;html=1;rounded=0;exitX=1;exitY=0.5;exitDx=0;exitDy=0;entryX=0;entryY=0.5;entryDx=0;entryDy=0;jumpStyle=gap;" edge="1" parent="1" source="D5lpfLi3ph63Vn9O6m8F-16" target="JdyK81aP22bagLdb8Qu5-9">
          <mxGeometry width="50" height="50" relative="1" as="geometry">
            <mxPoint x="695" y="535" as="sourcePoint" />
            <mxPoint x="785" y="395" as="targetPoint" />
          </mxGeometry>
        </mxCell>
        <mxCell id="JdyK81aP22bagLdb8Qu5-22" value="&lt;font style=&quot;font-size: 30px;&quot;&gt;&lt;b style=&quot;&quot;&gt;Data Flow Diagram&lt;/b&gt;&lt;/font&gt;" style="text;html=1;align=left;verticalAlign=middle;whiteSpace=wrap;rounded=0;" vertex="1" parent="1">
          <mxGeometry x="120" y="110" width="330" height="80" as="geometry" />
        </mxCell>
      </root>
    </mxGraphModel>
  </diagram>
</mxfile>
